<?xml version="1.0" encoding="utf-8"?>
<!-- Generator: Adobe Illustrator 23.0.0, SVG Export Plug-In . SVG Version: 6.00 Build 0)  -->
<svg version="1.1" xmlns="http://www.w3.org/2000/svg" xmlns:xlink="http://www.w3.org/1999/xlink" x="0px" y="0px"
	 viewBox="0 0 78.6 100" style="enable-background:new 0 0 78.6 100;" xml:space="preserve">
<g id="body">
	<path class="body" d="M34.5,13.6c0,0-25,23.5-21.9,39.8s-0.9,22,17.2,23.6c18.1,1.6,24.8,0.4,29.3-6.7s9-16.3,6.3-23.2
		c-2.8-6.9-18.2-32-22-34.6L34.5,13.6z"/>
	<polygon class="body" points="35.6,3.6 35,13.3 39.9,12.7 41.8,9.4 41.8,5.6 40.1,2.4 	"/>
	<rect x="23.4" y="78.6" class="body" width="32.6" height="5.8"/>
	<rect x="13.9" y="89.4" class="body" width="50.9" height="5.7"/>
</g>
<g id="light">
	<g>
		<path class="light" d="M39.3,3.1c-2.6,1.4-3.2,6.4-1.3,8.8l-4.8-1.2v-5L39.3,3.1z"/>
		<path class="light" d="M34.5,14.2c0,0-4.3,7.8-8,13.5S15.3,43.3,15.3,51.6s6.9,20.2,15.9,22.7H19.7c0,0-10.3-8.5-10.1-22.4
			C9.9,36.9,26.4,25.5,34.5,14.2z"/>
		<rect x="13.9" y="78.6" class="light" width="9.6" height="5.8"/>
		<rect x="4.5" y="89.4" class="light" width="9.4" height="5.7"/>
	</g>
</g>
<g id="shadow">
	<path class="shadow" d="M39.6,3.6c1,2,2.6,4.7,0.4,8l2.5-1.5V4.8L39.6,3.6z"/>
	<path class="shadow" d="M42.5,15.1l8,10.1l-9.4,19.4l14.4-12c0,0,8.1,8,8.1,20S52.6,73.3,45.3,74.3C38,75.3,57,76.2,57,76.2L67.3,66
		l3.7-12c0,0-2.6-11.4-2.6-12S52.2,20.8,52.2,20.8l-7.6-8.3L42.5,15.1z"/>
	<rect x="56" y="78.6" class="shadow" width="8.7" height="5.8"/>
	<rect x="64.6" y="89.4" class="shadow" width="9.6" height="5.8"/>
</g>
<g id="outline">
	<path class="outline" d="M69.7,84.4V74.3h-4.7c7.1-6.8,8.3-18,8.3-22.1c0-4.2-0.4-10.1-6.2-17.4C63.9,30.7,47,9.8,47,9.8v0
		c0.2-0.6,0.2-1.2,0.2-1.9c0-5.3-4.7-7.9-8-7.9c-3.3,0-8,2.6-8,7.9c0,0.7,0.1,1.3,0.2,1.9v0c0,0-17,20.4-20.1,24.5
		C7.3,40.1,5.3,48,5.3,52.2c0,4.2,1.1,15.3,8.3,22.1H8.9v10.1H0V100h78.6V84.4H69.7z M39.3,4.2c4.1,0,4.4,7.3,0,7.3
		C34.9,11.5,35.2,4.2,39.3,4.2z M9.7,51.9c0-14.3,15.6-25.1,24.9-37.7c1.5,1.1,3.3,1.7,4.8,1.7c1.5,0,3.3-0.6,4.8-1.7
		c2.3,3.2,5.1,6.2,7.9,9.2c0,0-14.5,17.7-14.9,19.8c-0.4,2.1,1.8,3.2,3,2.5C41.3,45,54.8,27.5,55.2,27c7.2,7.8,13.7,15.6,13.7,24.9
		c0,9.8-5,17.7-10.1,22.4H19.7C14.7,69.5,9.7,61.7,9.7,51.9z M64.7,78.6v5.8H13.9v-5.8H64.7z M74.1,95.1H4.5v-5.7h69.6V95.1z"/>
</g>
</svg>
