<?xml version="1.0" encoding="utf-8"?>
<!-- Generator: Adobe Illustrator 23.0.0, SVG Export Plug-In . SVG Version: 6.00 Build 0)  -->
<svg version="1.1" id="Layer_1" xmlns="http://www.w3.org/2000/svg" xmlns:xlink="http://www.w3.org/1999/xlink" x="0px" y="0px"
	 viewBox="0 0 47.5 100" style="enable-background:new 0 0 47.5 100;" xml:space="preserve">
<style type="text/css">
	.st0{fill:#161515;}
</style>
<path class="st0" d="M17.7,8.7C18.5,8,18.9,7.4,18.9,7c0-1.7-2.1-2.1-2.1-3.7c0-1.6,1.9-4.5,6.9-2.7c5-1.8,6.9,1.1,6.9,2.7
	c0,1.7-2.1,2-2.1,3.7c0,1.7,9,6.1,9,14.4c0,3.5-0.5,6.3-4.8,10.6c0.5,1.1,0.3,3.1-0.1,3.1l0.1,0.8c2-0.2,3.5,2.4,2.9,4
	c0.8,0,3.7-0.4,3.7,2.5c0,2.9-4.5,2.6-7.5,2c-0.1,4.9,1,16.6,3.2,22.9c2.4,6.9,5.4,5.7,5.4,5.7l1.6,1.6c0,0-2.8,2.4-2.8,3.1
	c0,0.7,8.3,6.2,8.3,9.2c0,2.9-2.6,5.1-2.6,5.4c0,0.3,2.4,1.7,2.4,1.7v4.8c-6.4,1.4-23.6,1.1-23.6,1.1s-17.2,0.4-23.6-1.1v-4.8
	c0,0,2.4-1.4,2.4-1.7C2.6,92.1,0,89.9,0,87c0-2.9,8.3-8.5,8.3-9.2c0-0.7-2.8-3.1-2.8-3.1l1.6-1.6c0,0,3,1.2,5.4-5.7
	c2.2-6.4,3.3-18.1,3.2-22.9c-3.1,0.6-7.5,0.9-7.5-2c0-2.9,2.8-2.5,3.7-2.5c-0.6-1.6,0.9-4.3,2.9-4l0.1-0.8c-0.4,0.1-0.6-1.9-0.1-3.1
	c-4.4-4.3-4.8-7.2-4.8-10.6c0-3.8,1.9-6.8,4-9.1l6.4,8l1.8-1.6L17.7,8.7z"/>
</svg>
