<?xml version="1.0" encoding="utf-8"?>
<!-- Generator: Adobe Illustrator 23.0.0, SVG Export Plug-In . SVG Version: 6.00 Build 0)  -->
<svg version="1.1" xmlns="http://www.w3.org/2000/svg" xmlns:xlink="http://www.w3.org/1999/xlink" x="0px" y="0px"
	 viewBox="0 0 89.9 100" style="enable-background:new 0 0 89.9 100;" xml:space="preserve">
<style type="text/css">
	.body{fill:#EFD6BA;}
	.shadow{fill:#DFA996;}
	.light{fill:#FFFFFF;}
	.outline{fill:#44220E;}
</style>
<g id="Layer_1">
	<path class="body" d="M69.4,19.7l16.4,15.2L74.5,66.7l-8.4,6.9l-0.5,13.3c0,0,10.1,1,10.2,1.6s-3.6,8-3.6,8l-62,2.6l3-11l7.4-1
		l-2-23.3L6.7,40.4l5.2-14.2l16.4-5.5l12.4,3l13.4-1.9L69.4,19.7z"/>
</g>
<g id="Layer_2">
	<path class="shadow" d="M45,27.4c0,0-5.6,4.4-5.2,4.8s15.3-8.8,27.6-7.9C79.5,25.1,81,35.7,81,40.9c0,9.7-13.8,28.4-25.6,32.5l1.1,0.8
		l8,1.1l16-13.8l7.7-23l-4.5-10.7l-11-7.1H58.3l-12.6,4.2L45,27.4z"/>
	<path class="shadow" d="M61.3,76.7c0,0,0,8.8,0,9c0,0.3,9.5-0.8,9.5,0s0-9,0-9H61.3z"/>
	<path class="shadow" d="M70,88.4v9.1c0,0,10.7,0.2,10.7,0s0-10,0-10L70,88.4z"/>
</g>
<g id="Layer_3">
	<g>
		<path class="light" d="M28.9,22.4C15.3,23.3,7.3,30.3,9.6,41s11.4,25.1,24,31.3v1.9h-10l-6.2-6.1l-14-19.8v-16l7.8-9.1l10-2.5
			L28.9,22.4z"/>
		<polygon class="light" points="29.2,77.3 29.2,85.8 18.5,85.8 18.5,75.4 29.2,75.4 		"/>
		<polygon class="light" points="19.6,89.5 19.6,98 8.9,98 8.9,87.5 19.6,87.5 		"/>
	</g>
</g>
<g id="Layer_4">
	<path class="outline" d="M73.5,73.6c0-1.2-1.9-1.6-1.9-1.6c6.7-5,17.8-14.4,18.3-32.1c0.4-13.8-12.2-22.7-22.7-22.7
		c-5.3,0-12.8,1.3-19.9,4.3v-10c0,0,7.3,0,7.8,0c0.6,0,1.2-0.9,1.2-1.7C56.3,9,55.8,8,55.1,8c-1.1,0-7.9,0-7.9,0s0-5.5,0-6.4
		C47.2,0.7,46.3,0,45,0c-1.3,0-2.2,0.7-2.2,1.6c0,0.9,0,6.4,0,6.4s-6.9,0-7.9,0c-0.7,0-1.2,1-1.2,1.8c0,0.8,0.6,1.7,1.2,1.7
		c0.6,0,7.8,0,7.8,0v10c-7.1-3-14.6-4.3-19.9-4.3C12.2,17.2-0.4,26.2,0,40C0.5,57.7,11.6,67,18.3,72c0,0-1.9,0.4-1.9,1.6
		c0,1.2,0,11.6,0,11.6H6.9V100H83V85.3h-9.5C73.5,85.3,73.5,74.8,73.5,73.6z M4.7,40c0-12.9,9.4-18.1,18.6-18.1S45,27.4,45,27.4
		s12.4-5.6,21.7-5.6c9.2,0,18.6,5.3,18.6,18.1s-9.6,24.3-20.6,32.4H25.3C14.3,64.3,4.7,52.8,4.7,40z M69.4,77.3v7.9h-49v-7.9H69.4z
		 M78.8,89.5v6.4H11.2v-6.4H78.8z"/>
</g>
</svg>
