<?xml version="1.0" encoding="utf-8"?>
<!-- Generator: Adobe Illustrator 23.0.0, SVG Export Plug-In . SVG Version: 6.00 Build 0)  -->
<svg version="1.1" id="Layer_1" xmlns="http://www.w3.org/2000/svg" xmlns:xlink="http://www.w3.org/1999/xlink" x="0px" y="0px"
	 viewBox="0 0 43.3 100" style="enable-background:new 0 0 43.3 100;" xml:space="preserve">

<path d="M0.2,94.4V99l21.4,1l21.4-1v-4.6c0,0-2.3-1.1-2.3-1.3c0-0.2,2.6-2.2,2.6-4.3c0-5.4-7.4-6.5-7.4-9.3
	c0-1.6,1.7-1.8,1.7-2.8c0-0.5-1.2-1.4-2.9-1.4C33,75.3,26.9,59.2,29,49c2.8,0.5,7.2,0.2,7.2-2.2c0-2.4-1.7-3.1-3.3-3.1
	c0-1.4-1.2-1.9-3.1-1.9c0.6-1.5,0.1-3.4-0.5-4.3c4.7-6.7,5.7-9.9,5.7-13s-5.4-5.3-10.3-5.3l-0.9-1.8c0.6-0.1,2.3-0.8,2.6-1.1
	c0,0-2.1-2.7-2-2.9c0.1-0.2,2.8-0.2,3.4,0.8V9.2c0,0-2.6,1.1-2.8,0.9C24.7,9.9,25.1,7.9,26,7c-0.9-0.8-2.2-1.6-2.9-1.7
	C22.9,3,24.2,0,24.2,0l-5,0c0,0,1.2,3,1.1,5.3c-0.7,0.1-2,0.9-2.9,1.7c1,1,1.4,2.9,1.1,3.1c-0.3,0.2-2.8-0.9-2.8-0.9v5.1
	c0.6-1,3.2-1,3.4-0.8c0.1,0.2-2,2.9-2,2.9c0.3,0.3,2,1,2.6,1.1l-0.9,1.8c-4.9,0-10.3,2.2-10.3,5.3s1,6.2,5.7,13
	c-0.7,0.9-1.1,2.8-0.5,4.3c-1.8,0-3.1,0.5-3.1,1.9c-1.6,0-3.3,0.6-3.3,3.1c0,2.4,4.4,2.7,7.2,2.2c2.1,10.1-3.9,26.3-5.6,26.3
	c-1.7,0-2.9,0.9-2.9,1.4c0,0.9,1.7,1.2,1.7,2.8c0,2.8-7.4,3.9-7.4,9.3c0,2.2,2.6,4.1,2.6,4.3C2.6,93.4,0.2,94.4,0.2,94.4z"/>
</svg>
