<?xml version="1.0" encoding="utf-8"?>
<!-- Generator: Adobe Illustrator 23.0.0, SVG Export Plug-In . SVG Version: 6.00 Build 0)  -->
<svg version="1.1" xmlns="http://www.w3.org/2000/svg" xmlns:xlink="http://www.w3.org/1999/xlink" x="0px" y="0px"
	 viewBox="0 0 77.4 100" style="enable-background:new 0 0 77.4 100;" xml:space="preserve">
<g id="Layer_1">
	<rect x="23.2" y="77.9" class="body" width="31.4" height="8.2"/>
	<path class="body" d="M13.1,87.7c0,0-0.4,8.8,0,9.2c0.4,0.4,50.6,0,50.6,0V86.8L13.1,87.7z"/>
	<path class="body" d="M10.7,30l1.1,10.6H29l-1,4.7L16.3,57.7c0,0-2.8,18-0.7,18s39.6,1.5,39.6,1.5l7.3-39.3l-7-18.3L42.6,5l-2.7,10
		L9.1,25.9L10.7,30z"/>
</g>
<g id="Layer_2">
	<g>
		<path class="light" d="M29.3,74.5c-5.6-3.1-6.6-6.9-6.6-9.7S35.5,41,35.5,41l-3.9,0.7L16.3,56.9l-0.8,17.5l12.2,2L29.3,74.5z"/>
		<rect x="11.7" y="77.2" class="light" width="11.4" height="7.7"/>
		<polygon class="light" points="13.1,88.5 13.1,96.9 2.6,96.9 2.6,87.3 		"/>
		<path class="light" d="M12.2,31.9c6.6-7.7,23.3-11,26.3-12.2c3-1.2,4.8-4.2,4.6-5.9S9.1,25.1,9.1,25.1l1.2,8.2L12.2,31.9z"/>
	</g>
</g>
<g id="Layer_3">
	<path class="shadow" d="M63.7,89.2c0,0,9.5-1.1,9.5,0c0,1.1,0,5.8,0,5.8h-9.5V89.2z"/>
	<rect x="54.5" y="77.9" class="shadow" width="9.2" height="7.6"/>
	<path class="shadow" d="M11.7,37.4c0,0,23.1-5.8,25.1-4c1.9,1.8,1.5,4,1.1,5.1c-0.5,1.2-3.5,3.3-3.5,3.3l-11.2-2.1l-10.3,2.1
		L11.7,37.4z"/>
	<path class="shadow" d="M43.1,9.2c0,0,16.6,22.7,16.6,24.1s-8.3,25.4-8.3,29.3s2.5,9-6.7,11.2l-1,1.9h17.3l-2.3-11L66,32.3l-23-27.7
		V9.2z"/>
</g>
<g id="Layer_4">
	<path class="outline" d="M68.4,84.2V74h-5.1c0,0-1.7-8.8-1.7-11.1c0-2.2,6.1-28.7,6.8-31.4c0-0.1,0-0.3-0.1-0.4L42.6,0.2
		C42.5,0.1,42.4,0,42.2,0h-3.1c-0.3,0-0.5,0.2-0.5,0.5l0,11.5c0,0.2-0.1,0.4-0.3,0.4l-31.2,11c-0.2,0.1-0.3,0.3-0.3,0.5l2.5,18.9
		c0,0.2,0.3,0.4,0.5,0.4l16.5-1.1c0.4,0,0.7,0.5,0.4,0.8l-13,12.6c-0.1,0.1-0.1,0.2-0.1,0.3v18.2H9.2c0,0,0.3,10.1,0,10.1
		c-0.3,0-9.2,0-9.2,0V100h77.4V84.2H68.4z M18.6,57.4l17.7-16.7c0,0,0.4-1.4,0.4-2.4c0-1-1.6-1.5-1.6-1.5l-21.8,1.7l-2.1-11.5
		l32.4-11.8V7.9l20,24.8l-5.8,24.9c0,0-0.9,3.6-0.9,5.2c0,1.6,1.8,11.4,1.8,11.4H36.1v-7.6c0-1,0.2-1.9,0.6-2.8l3.8-8.1
		c0,0,0.4-2-0.9-2.8c-1.2-0.8-3.1,1.2-3.1,1.2l-4.1,7.4c-0.5,1-0.8,2-0.8,3.2v9.5H18.6V57.4z M13.7,78.6h50v5.7h-50V78.6z M73.2,95
		H4.1v-5.8h69.2V95z"/>
</g>
</svg>
