<?xml version="1.0" encoding="utf-8"?>
<!-- Generator: Adobe Illustrator 23.0.0, SVG Export Plug-In . SVG Version: 6.00 Build 0)  -->
<svg version="1.1" id="Layer_1" xmlns="http://www.w3.org/2000/svg" xmlns:xlink="http://www.w3.org/1999/xlink" x="0px" y="0px"
	 viewBox="0 0 50.3 100" style="enable-background:new 0 0 50.3 100;" xml:space="preserve">
<style type="text/css">
	.st0{fill:#161515;}
</style>
<path class="st0" d="M30.8,0C25.1,9.8,15.5,13.4,8.6,9.5C8.3,9.4,7.2,9.3,7,9.5c0,0-5.6,3.8-5.6,3.8c1.2,1.7,1.2,4.6,0.2,6.1h6.7
	l1.3,2.2l-6.8,4.9c-0.4,2.3,3.4,4.5,4.9,2.7c1.6-1.9,2.8-3.6,5.5-3.6c3.1,0,7.3,2.2,9.5,4.3C21.7,30.6,1.7,48.6,1.7,59.9
	c0,4.2,2.7,9.1,5.8,11.3c0.1,0,0.2,1,0.1,0.9c-0.6,0.4-1.3,1.5-1.3,2.2c0,0.7,1.1,2.4,1.1,3.4c-0.1,3.1-6,5.5-6,10
	c0,1.3,1.1,2.6,1.1,2.9S0,94,0,94s0,4,0,4.7c10.4,1.4,14.5,1.4,25.8,1.4c10.8,0,18.6-0.8,23.4-1.4v-5.3c0,0-2.1-1.1-2.1-1.4
	s2.4-1.7,2.4-4.2c0-4-6.5-7.5-6.5-10.5c0-2.5,0.7-3.1,0.7-3.7s-1-2.1-1-2.1c3.1,0.1,5.5-0.8,6.7-2.3C43,63.3,40.5,57,40.5,53.5
	c0-7.5,9.8-18.2,9.8-30.7S40.9-0.7,30.8,0z"/>
</svg>
