<?xml version="1.0" encoding="utf-8"?>
<!-- Generator: Adobe Illustrator 23.0.0, SVG Export Plug-In . SVG Version: 6.00 Build 0)  -->
<svg version="1.1" xmlns="http://www.w3.org/2000/svg" xmlns:xlink="http://www.w3.org/1999/xlink" x="0px" y="0px"
	 viewBox="0 0 80.7 100" style="enable-background:new 0 0 80.7 100;" xml:space="preserve">
<g id="Layer_2">
	<polygon class="body" points="22.6,76.1 57.3,76.1 57.3,86.1 21.5,86.1 	"/>
	<polygon class="body" points="14,87.8 14,99.1 67.5,99.1 67.5,86.9 	"/>
	<polygon class="body" points="45.8,45.5 60.3,72.8 22.6,72.8 29.9,43.7 	"/>
	<path class="body" d="M44.9,3.8c0,0,9.1,10,10,10.9c0.9,0.9,2.4,17.4,2.4,17.4l-8.9,11l-14.2,1.7l-7.7-4.1l-6.6-16.4L26,7l12.6-3.8
		L44.9,3.8z"/>
</g>
<g id="Layer_1">
	<g>
		<polygon class="light" points="22.6,76.1 22.6,85.4 12.4,85.4 12.4,75.1 		"/>
		<polygon class="light" points="14,88.8 14,96.4 3,96.4 3,86.9 		"/>
		<path class="light" d="M33.4,46.5c0,10.9-3.5,16.9-3.6,20.6c-0.2,3.7,3.6,4.7,3.6,4.7l-11.8,1.1c0,0-0.2-3.6,0-4.1
			s5.9-15.9,5.9-15.9l1.5-9.7l4.4,1.7V46.5z"/>
		<path class="light" d="M34.2,6c-5.8,4.8-8.9,11.6-8.9,17.9S29,39.4,36,42.6v2.1l-14.4-8.5l-2-9.7l0.8-8.3l5.6-10L35.1,3L34.2,6z"/>
	</g>
</g>
<g id="Layer_3">
	<polygon class="shadow" points="67.5,74.2 57.3,76.1 57.3,86.1 67.5,86.1 	"/>
	<rect x="66.7" y="87.8" class="shadow" width="9.4" height="10"/>
	<path class="shadow" d="M43.4,47.6c3.8-0.1,3.8,1.9,4.1,4.2c0.3,2.3,3,12,4.1,13.3c1.1,1.4,2.9,5.4,3.8,6.4c0.9,0.9,4.4,0,4.4,0
		l-4.2-9.1l-1.2-9.1l-1.7-8.6c0,0-3.6-0.8-4.1-0.6s-5.9,2.4-5.9,2.4L43.4,47.6z"/>
	<path class="shadow" d="M45.1,6.2C51,10.9,54,17.7,54,24.1s-3.6,15.5-10.6,18.7v2.1l14.4-8.5l2-9.7L59,18.3l-5.6-10l-9.1-5.1L45.1,6.2
		z"/>
</g>
<g id="Layer_4">
	<path class="outline" d="M71.2,84.4V70.7h-6.2c-6.7-4.5-10.4-17.7-10.4-28.3l-0.1,0c5.8-4.8,9.5-12.1,9.5-18.5c0-10.7-9.1-24-23.7-24
		S16.7,13.3,16.7,24c0,6.4,3.6,13.7,9.5,18.5l-0.1,0c0,10.6-3.7,23.7-10.4,28.3H9.5v13.6H0V100h80.7V84.4H71.2z M21.6,23.9
		c0-7.9,6.7-19,18.8-19s18.8,11.1,18.8,19c0,9.4-7.3,19.2-18.8,19.2S21.6,33.3,21.6,23.9z M30.6,45.5c2.9,1.5,6.2,2.4,9.8,2.4
		c3.5,0,6.8-0.9,9.8-2.4c-0.1,9.3,3,18.2,8,25.3H22.6C27.7,63.7,30.7,54.8,30.6,45.5z M14.7,76.1H66v8.3H14.7V76.1z M74.8,95.8H6v-7
		h68.8V95.8z"/>
</g>
</svg>
