<?xml version="1.0" encoding="utf-8"?>
<!-- Generator: Adobe Illustrator 23.0.0, SVG Export Plug-In . SVG Version: 6.00 Build 0)  -->
<svg version="1.1" id="Layer_1" xmlns="http://www.w3.org/2000/svg" xmlns:xlink="http://www.w3.org/1999/xlink" x="0px" y="0px"
	 viewBox="0 0 57.1 100" style="enable-background:new 0 0 57.1 100;" xml:space="preserve">
<path d="M57.1,97.7c-3.5,1.1-19.3,2.6-28.5,2.3c-9.2,0.3-25-1.2-28.5-2.3c-0.1,0,0.1-6.2,0.1-6.2C2.1,91.4,4,89.6,4,88.1
	c0-1.4-3-3.5-3.1-6.5c0-5.9,11.9-8.7,11.9-13c0-1.9-1.6-3.5-2.8-3.8l1-2.9c2.4,0.4,5.6-0.2,7.6-8.4c2-8.2,0.4-11.5-0.2-12.6
	c-1.1-0.6-5.4,0.8-6.7,0.3c-1.3-0.5-1.3-4.8-0.1-5.6c1.2-0.8,6.5-0.7,9.1-3.9c-9.5-6.2-9.6-12.2-9.6-15.7c0-8.4,8.1-16,17.4-16
	c9.3,0,17.4,7.6,17.4,16c0,3.5-0.1,9.5-9.6,15.7c2.7,3.2,7.9,3.1,9.1,3.9c1.2,0.8,1.2,5.1-0.1,5.6c-1.3,0.5-5.6-0.8-6.7-0.3
	c-0.6,1.1-2.2,4.4-0.2,12.6c2,8.2,5.2,8.7,7.6,8.4l1,2.9c-1.2,0.3-2.8,1.9-2.8,3.8c0,4.3,11.9,7.1,11.9,13c0,3-3.1,5.1-3.1,6.5
	c0,1.4,1.9,3.3,3.9,3.3C57,91.5,57.1,97.7,57.1,97.7z"/>
</svg>
