<?xml version="1.0" encoding="utf-8"?>
<!-- Generator: Adobe Illustrator 23.0.0, SVG Export Plug-In . SVG Version: 6.00 Build 0)  -->
<svg version="1.1" id="Layer_1" xmlns="http://www.w3.org/2000/svg" xmlns:xlink="http://www.w3.org/1999/xlink" x="0px" y="0px"
	 viewBox="0 0 49.6 100" style="enable-background:new 0 0 49.6 100;" xml:space="preserve">
<style type="text/css">
	.st0{fill:#161515;}
</style>
<path class="st0" d="M0,94.4l0,4.3c4.3,1.1,24.8,1.3,24.8,1.3s20.5-0.2,24.8-1.3v-4.3c0,0-2.6-1.9-2.6-2.3c0-0.4,2.6-1.6,2.6-4.7
	c0-4.2-8.8-8.5-8.8-11.1c0-1.1,1.9-2.7,1.9-2.7c-0.8-0.6-0.8-1.4-0.9-1.4c-5,0-9.2-19.8-8.8-30.3c4.1,0.3,8.3-0.1,8.3-2.6
	c0-2.5-2.2-2.9-4-2.8c0-1-0.5-2.6-3.4-2.7c0.5-0.5,0.6-2.1,0.6-2.7c0-1.4-0.6-1.6-0.6-2.8c0-6.5,2.1-8.8,6.4-11.6
	c-1.7-4.7-6.8-1.8-7.3-4c-0.3-1.3-0.4-5.6-6.3-6.7V4.6c1.4-0.9,2-1.3,2-2.3S28.1,0,24.8,0C21.5,0,21,1.4,21,2.3s0.6,1.4,2,2.3v1.3
	c-5.8,1.2-6,5.4-6.3,6.7c-0.5,2.2-5.6-0.7-7.3,4c4.3,2.8,6.4,5.1,6.4,11.6c0,1.2-0.6,1.4-0.6,2.8c0,0.6,0,2.2,0.6,2.7
	c-2.9,0.1-3.4,1.7-3.4,2.7c-1.8-0.1-4,0.3-4,2.8c0,2.5,4.2,2.9,8.3,2.6c0.4,10.6-3.9,30.4-8.8,30.3c-0.1,0-0.1,0.8-0.9,1.4
	c0,0,1.9,1.6,1.9,2.7C8.8,78.9,0,83.2,0,87.4c0,3.1,2.6,4.3,2.6,4.7C2.6,92.5,0,94.4,0,94.4z"/>
</svg>
