<?xml version="1.0" encoding="utf-8"?>
<!-- Generator: Adobe Illustrator 23.0.0, SVG Export Plug-In . SVG Version: 6.00 Build 0)  -->
<svg version="1.1" xmlns="http://www.w3.org/2000/svg" xmlns:xlink="http://www.w3.org/1999/xlink" x="0px" y="0px"
	 viewBox="0 0 97.2 100" style="enable-background:new 0 0 97.2 100;" xml:space="preserve">
<g id="Layer_1">
	<path class="body" d="M93.3,21.2l-2.1,11.3L65.9,74l-35.8,0.6L11.1,34.1l-7-3.8l-1.6-7l5.7-3.7l4.2,3.2c0,0,1,10,1,10.1
		S28.3,50,28.3,50l-1.4-29.4l-7.8-3.4l4-7.9l5.6,0.8l3.1,6l-2.7,6L41.7,46l4.8-29.1l-4-9.5l7.2-4.3l3.8,6.3l-3.8,7.1l4.9,29.7
		l12.9-24l-1.4-8.5l4.1-5.4l7.2,5.7l-1.8,5.8l-6.3,2.4l-1.7,27L80,35.2l4.3-6l-0.3-6.7l5.5-3.4L93.3,21.2z"/>
	<rect x="31.7" y="76.3" class="body" width="33" height="9.6"/>
	<rect x="23" y="88.8" class="body" width="49.9" height="8.3"/>
</g>
<g id="Layer_2">
	<g>
		<rect x="73" y="88.8" class="shadow" width="9.6" height="8"/>
		<polygon class="shadow" points="64.7,85.9 74.2,85.9 74.2,75.6 65.9,75.6 63,74.5 		"/>
		<path class="shadow" d="M76.6,44.8c-1.8,4.8-8.9,22-10.9,24c-1.9,1.9-7.4,4.8-7.1,4.8c0.3,0,11.9,0.4,11.9,0.4l15.4-38.8l-5.6,2.1
			L76.6,44.8z"/>
		<path class="shadow" d="M90.9,26.2c0-1.2-0.3-2.8-2.8-3.8l0.7-1.2c0,0,5.6,1.9,5.6,2.1c0,0.2,0,5.7,0,5.7l-6.3,2.5
			c0,0-0.1-1.1,0.7-1.9S90.9,28.2,90.9,26.2z"/>
		<path class="shadow" d="M72.1,14.3c0-1.2-0.3-2.8-2.8-3.8L70,9.3c0,0,5.6,1.9,5.6,2.1s0,5.7,0,5.7l-6.3,2.5c0,0-0.1-1.1,0.7-1.9
			C70.9,17,72.1,16.4,72.1,14.3z"/>
	</g>
</g>
<g id="Layer_3">
	<path class="light" d="M20.5,43.6c0.7,1.9,7.8,20.3,10.2,23.5c2.4,3.3,6.7,5.8,6.7,5.8H24.8L11.9,34.6L20.5,43.6z"/>
	<path class="light" d="M6.1,26.3c0,1.2,0.3,2.8,2.8,3.8l-0.7,1.2c0,0-5.6-1.9-5.6-2.1c0-0.2,0-5.7,0-5.7L8.9,21c0,0,0.1,1.1-0.7,1.9
		C7.3,23.7,6.1,24.2,6.1,26.3z"/>
	<path class="light" d="M24.3,14.7c0,1.2,0.3,2.8,2.8,3.8l-0.7,1.2c0,0-5.6-1.9-5.6-2.1c0-0.2,0-5.7,0-5.7l6.3-2.5
		c0,0,0.1,1.1-0.7,1.9C25.5,12,24.3,12.6,24.3,14.7z"/>
	<polygon class="light" points="31.7,77 31.7,85.9 22,85.9 22,76.3 31.7,76.3 	"/>
	<polygon class="light" points="23,89.3 23,97.1 12.5,97.1 12.5,87.6 23,87.6 	"/>
</g>
<g id="Layer_4">
	<path class="outline" d="M89.4,18.2c-6,0-8.9,7.6-6.3,12.5L70.1,45l2.6-22.5c0,0,2.6,0.2,4.6-2.2c2-2.4,2.3-7.5-0.2-10.5
		c-2.9-3.5-8.5-3.6-12-0.2c-2.5,2.4-1.4,8.7,1.4,11.6l-10,19.5l-4.4-25.6c1.6-1,4.4-3.7,4.4-6.8c0-4.1-2.7-8.3-7.9-8.3
		c-5.2,0-7.9,4.1-7.9,8.3c0,3.2,2.8,5.9,4.4,6.8l-4.4,25.6l-10-19.5c2.8-2.9,3.9-9.2,1.4-11.6c-3.5-3.4-9.1-3.4-12,0.2
		c-2.5,3-2.2,8.1-0.2,10.5c2,2.4,4.6,2.2,4.6,2.2L27.1,45l-13-14.3c2.6-4.9-0.3-12.5-6.3-12.5c-6,0-7.8,5.3-7.8,8.4
		c0,3.1,3.5,7.7,8,7.7l14.8,38h-3.3V85H9.7v15h77.9V85.1H76.8V72.3h-2.4l14.8-38c4.5,0,8-4.6,8-7.7C97.2,23.5,95.4,18.2,89.4,18.2z
		 M7.4,29.9c-2.1,0-3.8-1.7-3.8-3.8c0-2.1,1.7-3.8,3.8-3.8c2.1,0,3.8,1.7,3.8,3.8C11.1,28.2,9.5,29.9,7.4,29.9z M71.3,11.1
		c2,0,3.7,1.7,3.7,3.7c0,2-1.7,3.7-3.7,3.7c-2,0-3.7-1.7-3.7-3.7C67.6,12.8,69.2,11.1,71.3,11.1z M48.6,4.8c4.6,0,4,6.7,0,6.7
		C44.6,11.5,44,4.8,48.6,4.8z M25.7,18.5c-2,0-3.7-1.7-3.7-3.7c0-2,1.7-3.7,3.7-3.7c2,0,3.7,1.7,3.7,3.7
		C29.4,16.9,27.8,18.5,25.7,18.5z M82.6,89.3v6.5H13.9v-6.5H82.6z M23,85.1v-8H73v8H23z M69.4,72.3H27.8L14.7,38.5
		C15.1,39,29.2,54.4,31,54.4c3,0-0.8-24.6-0.8-24.6S39.9,49.9,41.4,50c3.2,0.3,7.2-27.2,7.2-27.2s4,27.5,7.2,27.2
		C57.3,49.9,67,29.8,67,29.8s-3.8,24.6-0.8,24.6c1.7,0,15.8-15.4,16.3-15.9L69.4,72.3z M89.6,29.8c-2,0-3.7-1.7-3.7-3.7
		c0-2,1.7-3.7,3.7-3.7c2,0,3.7,1.7,3.7,3.7C93.3,28.2,91.7,29.8,89.6,29.8z"/>
</g>
</svg>
