<?xml version="1.0" encoding="utf-8"?>
<!-- Generator: Adobe Illustrator 23.0.0, SVG Export Plug-In . SVG Version: 6.00 Build 0)  -->
<svg version="1.1" xmlns="http://www.w3.org/2000/svg" xmlns:xlink="http://www.w3.org/1999/xlink" x="0px" y="0px"
	 viewBox="0 0 80.7 100" style="enable-background:new 0 0 80.7 100;" xml:space="preserve">
<g id="shadow">
	<g>
		<polygon class="shadow" points="78.2,87 78.2,95.8 67.1,95.8 67.1,87.6 		"/>
		<polygon class="shadow" points="65.8,75.8 65.8,84.6 57.6,84.6 57.6,76.4 		"/>
		<rect x="62.5" y="4.1" class="shadow" width="4.6" height="26.5"/>
		<path class="shadow" d="M41.7,31.7l12.8,1.1c0,0,3,22,3.1,23.2c0.1,1.2,5.3,19.3,5.3,19.3h-6.3L48,63l-0.6-23.3l-5.7-5.3V31.7z"/>
	</g>
</g>
<g id="body">
	<rect x="14.3" y="87.6" class="body" width="52.8" height="8.2"/>
	<rect x="23.7" y="76.4" class="body" width="33.9" height="8.2"/>
	<path class="body" d="M32.3,32.4l-7.5,36.7l5.2,6.3l30.4-1c0,0-4.4,1.3-7.4-10.1C49.2,50,49,39.6,47.2,37.3
		c-2.1-2.7-6.6-4.9-6.6-4.9H32.3z"/>
	<polygon class="body" points="17.8,2.9 23.7,3.5 24.4,15 33.8,15 33.8,2.4 47.5,2.9 47.5,13.9 57.6,13.9 57,2.9 62.5,2.4 62.5,30.2 
		16.5,30.2 16.5,2.9 	"/>
</g>
<g id="light">
	<polygon class="light" points="23.7,77.4 23.7,85.3 14,85.3 14,75.4 23.7,75.4 	"/>
	<polygon class="light" points="14.3,87.3 14.3,96.4 3.7,96.4 3.7,86.3 	"/>
	<path class="light" d="M33,32.4C33,48.2,29,61.6,27.4,66c-0.2,4.3,4.1,5.7,8.5,6.8s-13.6,2.5-13.6,2.5l-4.5-2.5l7.3-30.7
		c0,0-1-9.7-0.4-9.7S33,32.4,33,32.4z"/>
	<polygon class="light" points="17.8,5 17.8,30.2 13.2,30.2 13.2,2.9 	"/>
</g>
<g id="outline">
	<path class="outline" d="M70.8,83.4V72.9h-5.3c-3.7-7.1-8.1-24-8.1-39.1h13.5V0H55.1v11.2h-5.3V0h-19v11.2h-5.3V0H9.8v33.7h13.5
		c0,15.1-4.4,32-8.1,39.1H9.8v10.5H0V100h80.7V83.4H70.8z M15.1,28.5V5.2h6.8v12h13.5v-12h10v12h13.5v-12h6.8v23.3H15.1z M28.4,33.7
		h23.9c0,15.1,4.4,32,8.1,39.1H20.3C24,65.7,28.4,48.9,28.4,33.7z M14.9,77.4h50.9v6H14.9V77.4z M76.2,94.8H4.5v-6.2h71.7V94.8z"/>
</g>
</svg>
